<svg width="192" height="192" viewBox="0 0 192 192" fill="none" xmlns="http://www.w3.org/2000/svg">
<rect width="192" height="192" fill="#81B3D3"/>
<path d="M64.1684 114.11C64.3024 114.238 64.3703 114.364 64.3703 114.492C64.5061 114.492 64.6401 114.554 64.7741 114.682C68.412 118.489 72.5233 122.044 77.1045 125.344C81.6858 128.517 86.9424 130.23 92.8708 130.485C93.0066 130.485 93.1406 130.55 93.2746 130.676H93.8821C94.0161 130.676 94.1519 130.739 94.2859 130.867H96.5087C97.184 130.739 97.7898 130.612 98.3293 130.485C100.489 130.103 102.549 129.327 104.394 128.201C106.413 127.058 107.964 125.661 109.041 124.011L109.447 123.249L109.85 122.488C110.12 121.6 110.322 120.775 110.458 120.012C110.592 119.252 110.66 118.553 110.66 117.919C110.66 114.492 109.041 111.636 105.809 109.35C102.795 106.985 99.3772 105.118 95.701 103.828C94.3185 103.347 92.8993 102.966 91.4557 102.687C90.1885 102.326 88.9077 102.008 87.616 101.734H87.2122C87.0764 101.608 86.9424 101.544 86.8083 101.544C80.254 100.04 73.9826 97.5996 68.2118 94.3085C62.4156 90.8817 58.4418 85.9941 56.2852 79.6472C55.8629 78.3191 55.4585 76.986 55.072 75.6482C54.7954 74.199 54.5932 72.7381 54.4663 71.2705C54.3421 70.8349 54.2743 70.3868 54.2644 69.9358V65.3663C54.3984 64.3514 54.6003 63.3365 54.8701 62.3199C55.2886 59.7272 55.9652 57.1773 56.891 54.704C57.8344 52.1659 59.0476 49.8803 60.5288 47.8505C64.842 41.1215 70.3667 36.2979 77.1045 33.3794C83.9781 30.4592 91.1198 29 98.5312 29C100.284 29 102.035 29.1262 103.788 29.3804C105.681 29.5078 107.568 29.6981 109.447 29.951C114.362 30.7298 119.174 32.0068 123.798 33.7598C128.649 35.5371 133.096 37.6308 137.139 40.0427L126.022 63.4627C122.394 60.9304 118.539 58.7009 114.499 56.7994C110.458 54.8942 106.078 53.9432 101.361 53.9432H99.7427C96.6444 54.3236 93.7481 55.6566 91.0519 57.9405C88.3575 60.0983 87.0102 62.4478 87.0102 64.9859V66.1287C87.1443 66.5091 87.3462 66.8895 87.616 67.2715C87.8858 68.1602 88.3575 68.9849 89.0311 69.7473C89.7047 70.5081 90.4462 71.2065 91.2538 71.8411C92.7368 72.9839 94.8917 74.0627 97.7236 75.0776C100.552 75.9663 103.518 76.855 106.618 77.7436C109.177 78.3781 111.669 79.0127 114.096 79.6472C116.522 80.1555 118.543 80.6637 120.16 81.172C127.705 83.7101 133.366 87.9616 137.139 93.9281C140.911 99.7667 142.866 105.987 143 112.587V113.539C143 114.302 142.934 115.064 142.798 115.825V117.919C141.99 124.52 139.7 130.803 135.926 136.769C132.288 142.736 127.369 147.305 121.171 150.479C118.87 151.498 116.508 152.388 114.096 153.144C111.687 153.775 109.261 154.347 106.82 154.859C104.818 155.237 102.793 155.491 100.756 155.62C98.8127 155.868 96.8543 155.995 94.8934 156H92.6689C84.5839 155.747 76.6345 154.096 68.8175 151.048C61.0023 147.876 54.0625 143.687 48 138.483L64.1684 114.11Z" fill="white"/>
</svg>
