<svg width="512" height="512" viewBox="0 0 512 512" fill="none" xmlns="http://www.w3.org/2000/svg">
<rect width="512" height="512" fill="#81B3D3"/>
<path d="M169.421 318.288C169.789 318.659 169.975 319.026 169.975 319.398C170.348 319.398 170.716 319.579 171.085 319.95C181.079 331.012 192.374 341.34 204.961 350.93C217.547 360.148 231.989 365.126 248.277 365.865C248.65 365.865 249.018 366.055 249.386 366.422H251.055C251.423 366.422 251.796 366.603 252.165 366.975H258.271C260.127 366.603 261.791 366.236 263.273 365.865C269.208 364.755 274.867 362.501 279.934 359.229C285.481 355.908 289.742 351.849 292.702 347.057L293.816 344.842L294.926 342.631C295.667 340.049 296.222 337.653 296.595 335.438C296.963 333.227 297.149 331.198 297.149 329.354C297.149 319.398 292.702 311.099 283.822 304.458C275.542 297.586 266.152 292.161 256.052 288.414C252.254 287.017 248.355 285.909 244.389 285.098C240.907 284.049 237.389 283.125 233.84 282.33H232.73C232.357 281.963 231.989 281.778 231.621 281.778C213.614 277.407 196.384 270.317 180.529 260.755C164.605 250.798 153.688 236.597 147.763 218.156C146.602 214.297 145.491 210.424 144.43 206.537C143.669 202.326 143.114 198.081 142.765 193.817C142.424 192.552 142.238 191.25 142.211 189.94V176.663C142.579 173.714 143.134 170.765 143.875 167.811C145.024 160.278 146.883 152.869 149.427 145.683C152.019 138.309 155.352 131.668 159.421 125.77C171.271 106.219 186.449 92.204 204.961 83.7243C223.845 75.2398 243.466 71 263.828 71C268.643 71 273.454 71.3668 278.27 72.1052C283.47 72.4754 288.655 73.0283 293.816 73.763C307.321 76.026 320.54 79.7363 333.244 84.8295C346.572 89.9936 358.79 96.077 369.899 103.085L339.356 171.132C329.388 163.774 318.796 157.296 307.699 151.771C296.595 146.236 284.563 143.473 271.604 143.473H267.156C258.644 144.578 250.687 148.451 243.279 155.087C235.877 161.356 232.176 168.183 232.176 175.557V178.878C232.544 179.983 233.098 181.088 233.84 182.198C234.581 184.78 235.877 187.177 237.727 189.392C239.578 191.602 241.615 193.632 243.834 195.475C247.908 198.796 253.829 201.93 261.609 204.879C269.38 207.461 277.529 210.043 286.045 212.625C293.075 214.469 299.923 216.312 306.589 218.156C313.255 219.633 318.807 221.11 323.25 222.586C343.98 229.961 359.531 242.314 369.899 259.649C380.262 276.613 385.632 294.688 386 313.862V316.63C386 318.845 385.818 321.06 385.445 323.271V329.354C383.226 348.534 376.933 366.789 366.566 384.125C356.571 401.46 343.057 414.737 326.028 423.96C319.707 426.92 313.216 429.505 306.589 431.701C299.971 433.535 293.306 435.197 286.6 436.684C281.101 437.783 275.535 438.521 269.939 438.895C264.601 439.617 259.221 439.987 253.833 440H247.722C225.509 439.266 203.67 434.469 182.193 425.613C160.722 416.395 141.656 404.223 125 389.103L169.421 318.288Z" fill="white"/>
</svg>
