<svg width="47" height="11" viewBox="0 0 47 11" fill="none" xmlns="http://www.w3.org/2000/svg">
<path d="M0.0777814 5.45H8.25378V6.486H0.0777814V5.45ZM21.8875 5.618H25.7795V6.654H21.8875V5.618ZM15.4755 3.644L14.7195 2.174H14.6635L14.8315 3.588V10H13.7115V0.0459996H14.3275L18.7515 6.528L19.4655 7.928H19.5355L19.3815 6.584V0.199999H20.5015V10.154H19.8575L15.4755 3.644ZM21.6215 2.412C21.6215 1.992 21.6775 1.63267 21.7895 1.334C21.9015 1.03533 22.0508 0.788 22.2375 0.591999C22.4335 0.396 22.6622 0.256 22.9235 0.172C23.1942 0.0786664 23.4835 0.0319998 23.7915 0.0319998C24.0995 0.0319998 24.3842 0.0739998 24.6455 0.158C24.9162 0.242 25.1448 0.377333 25.3315 0.564C25.5275 0.750666 25.6815 0.997999 25.7935 1.306C25.9055 1.60467 25.9615 1.97333 25.9615 2.412C25.9615 2.85067 25.9055 3.224 25.7935 3.532C25.6815 3.83067 25.5275 4.07333 25.3315 4.26C25.1448 4.44667 24.9162 4.582 24.6455 4.666C24.3842 4.75 24.0995 4.792 23.7915 4.792C23.4835 4.792 23.1942 4.75 22.9235 4.666C22.6622 4.582 22.4335 4.44667 22.2375 4.26C22.0508 4.07333 21.9015 3.83067 21.7895 3.532C21.6775 3.224 21.6215 2.85067 21.6215 2.412ZM22.6575 2.412C22.6575 2.972 22.7555 3.37333 22.9515 3.616C23.1568 3.85867 23.4368 3.98 23.7915 3.98C23.9688 3.98 24.1275 3.95667 24.2675 3.91C24.4075 3.854 24.5242 3.77 24.6175 3.658C24.7202 3.53667 24.7948 3.378 24.8415 3.182C24.8975 2.97667 24.9255 2.72 24.9255 2.412C24.9255 2.104 24.8975 1.852 24.8415 1.656C24.7948 1.45067 24.7202 1.292 24.6175 1.18C24.5242 1.05867 24.4075 0.974667 24.2675 0.928C24.1275 0.872 23.9688 0.843999 23.7915 0.843999C23.4368 0.843999 23.1568 0.955999 22.9515 1.18C22.7555 1.39467 22.6575 1.80533 22.6575 2.412ZM28.3616 8.964H30.3216V2.188L30.4616 1.362L29.9016 2.02L28.3616 3.126L27.8296 2.412L30.9096 0.0319998H31.4136V8.964H33.3316V10H28.3616V8.964ZM38.7418 5.45H46.9178V6.486H38.7418V5.45Z" fill="white"/>
</svg>
