<svg width="47" height="11" viewBox="0 0 47 11" fill="none" xmlns="http://www.w3.org/2000/svg">
<path d="M0.0777814 5.45H8.25378V6.486H0.0777814V5.45ZM21.8875 5.618H25.7795V6.654H21.8875V5.618ZM15.4755 3.644L14.7195 2.174H14.6635L14.8315 3.588V10H13.7115V0.0459996H14.3275L18.7515 6.528L19.4655 7.928H19.5355L19.3815 6.584V0.199999H20.5015V10.154H19.8575L15.4755 3.644ZM21.6215 2.412C21.6215 1.992 21.6775 1.63267 21.7895 1.334C21.9015 1.03533 22.0508 0.788 22.2375 0.591999C22.4335 0.396 22.6622 0.256 22.9235 0.172C23.1942 0.0786664 23.4835 0.0319998 23.7915 0.0319998C24.0995 0.0319998 24.3842 0.0739998 24.6455 0.158C24.9162 0.242 25.1448 0.377333 25.3315 0.564C25.5275 0.750666 25.6815 0.997999 25.7935 1.306C25.9055 1.60467 25.9615 1.97333 25.9615 2.412C25.9615 2.85067 25.9055 3.224 25.7935 3.532C25.6815 3.83067 25.5275 4.07333 25.3315 4.26C25.1448 4.44667 24.9162 4.582 24.6455 4.666C24.3842 4.75 24.0995 4.792 23.7915 4.792C23.4835 4.792 23.1942 4.75 22.9235 4.666C22.6622 4.582 22.4335 4.44667 22.2375 4.26C22.0508 4.07333 21.9015 3.83067 21.7895 3.532C21.6775 3.224 21.6215 2.85067 21.6215 2.412ZM22.6575 2.412C22.6575 2.972 22.7555 3.37333 22.9515 3.616C23.1568 3.85867 23.4368 3.98 23.7915 3.98C23.9688 3.98 24.1275 3.95667 24.2675 3.91C24.4075 3.854 24.5242 3.77 24.6175 3.658C24.7202 3.53667 24.7948 3.378 24.8415 3.182C24.8975 2.97667 24.9255 2.72 24.9255 2.412C24.9255 2.104 24.8975 1.852 24.8415 1.656C24.7948 1.45067 24.7202 1.292 24.6175 1.18C24.5242 1.05867 24.4075 0.974667 24.2675 0.928C24.1275 0.872 23.9688 0.843999 23.7915 0.843999C23.4368 0.843999 23.1568 0.955999 22.9515 1.18C22.7555 1.39467 22.6575 1.80533 22.6575 2.412ZM30.1256 9.188C30.4429 9.188 30.7369 9.14133 31.0076 9.048C31.2783 8.95467 31.5116 8.81933 31.7076 8.642C31.9036 8.45533 32.0576 8.236 32.1696 7.984C32.2816 7.732 32.3376 7.45667 32.3376 7.158C32.3376 6.50467 32.1416 6.01933 31.7496 5.702C31.3669 5.38467 30.8349 5.226 30.1536 5.226H29.1176V4.82L31.1336 1.712L31.7776 1.096L30.8676 1.236H28.0956V0.199999H33.0936V0.606L30.8676 3.952L30.3776 4.358V4.386L30.8536 4.288C31.2269 4.29733 31.5723 4.36733 31.8896 4.498C32.2069 4.61933 32.4823 4.80133 32.7156 5.044C32.9489 5.27733 33.1309 5.562 33.2616 5.898C33.3923 6.22467 33.4576 6.598 33.4576 7.018C33.4576 7.522 33.3689 7.97 33.1916 8.362C33.0143 8.754 32.7716 9.08533 32.4636 9.356C32.1649 9.61733 31.8103 9.818 31.3996 9.958C30.9889 10.098 30.5549 10.168 30.0976 10.168C29.6776 10.168 29.2996 10.1353 28.9636 10.07C28.6276 10.0047 28.3336 9.92067 28.0816 9.818L28.3756 8.824C28.5903 8.92667 28.8423 9.01533 29.1316 9.09C29.4303 9.15533 29.7616 9.188 30.1256 9.188ZM38.7418 5.45H46.9178V6.486H38.7418V5.45Z" fill="#333333"/>
</svg>
