<svg width="47" height="11" viewBox="0 0 47 11" fill="none" xmlns="http://www.w3.org/2000/svg">
<path d="M0.0777814 5.45H8.25378V6.486H0.0777814V5.45ZM21.8875 5.618H25.7795V6.654H21.8875V5.618ZM15.4755 3.644L14.7195 2.174H14.6635L14.8315 3.588V10H13.7115V0.0459996H14.3275L18.7515 6.528L19.4655 7.928H19.5355L19.3815 6.584V0.199999H20.5015V10.154H19.8575L15.4755 3.644ZM21.6215 2.412C21.6215 1.992 21.6775 1.63267 21.7895 1.334C21.9015 1.03533 22.0508 0.788 22.2375 0.591999C22.4335 0.396 22.6622 0.256 22.9235 0.172C23.1942 0.0786664 23.4835 0.0319998 23.7915 0.0319998C24.0995 0.0319998 24.3842 0.0739998 24.6455 0.158C24.9162 0.242 25.1448 0.377333 25.3315 0.564C25.5275 0.750666 25.6815 0.997999 25.7935 1.306C25.9055 1.60467 25.9615 1.97333 25.9615 2.412C25.9615 2.85067 25.9055 3.224 25.7935 3.532C25.6815 3.83067 25.5275 4.07333 25.3315 4.26C25.1448 4.44667 24.9162 4.582 24.6455 4.666C24.3842 4.75 24.0995 4.792 23.7915 4.792C23.4835 4.792 23.1942 4.75 22.9235 4.666C22.6622 4.582 22.4335 4.44667 22.2375 4.26C22.0508 4.07333 21.9015 3.83067 21.7895 3.532C21.6775 3.224 21.6215 2.85067 21.6215 2.412ZM22.6575 2.412C22.6575 2.972 22.7555 3.37333 22.9515 3.616C23.1568 3.85867 23.4368 3.98 23.7915 3.98C23.9688 3.98 24.1275 3.95667 24.2675 3.91C24.4075 3.854 24.5242 3.77 24.6175 3.658C24.7202 3.53667 24.7948 3.378 24.8415 3.182C24.8975 2.97667 24.9255 2.72 24.9255 2.412C24.9255 2.104 24.8975 1.852 24.8415 1.656C24.7948 1.45067 24.7202 1.292 24.6175 1.18C24.5242 1.05867 24.4075 0.974667 24.2675 0.928C24.1275 0.872 23.9688 0.843999 23.7915 0.843999C23.4368 0.843999 23.1568 0.955999 22.9515 1.18C22.7555 1.39467 22.6575 1.80533 22.6575 2.412ZM29.8316 9.188C30.4756 9.188 31.0076 9.00133 31.4276 8.628C31.8476 8.25467 32.0576 7.71333 32.0576 7.004C32.0576 6.32267 31.8476 5.814 31.4276 5.478C31.0169 5.142 30.4476 4.974 29.7196 4.974L28.5436 5.044V0.199999H32.9116V1.236H29.5936V4.022L30.1956 3.994C31.1196 4.00333 31.8476 4.26 32.3796 4.764C32.9116 5.268 33.1776 5.99133 33.1776 6.934C33.1776 7.45667 33.0889 7.92333 32.9116 8.334C32.7343 8.73533 32.4916 9.07133 32.1836 9.342C31.8849 9.61267 31.5303 9.818 31.1196 9.958C30.7089 10.098 30.2703 10.168 29.8036 10.168C29.3836 10.168 29.0289 10.1447 28.7396 10.098C28.4503 10.0513 28.1796 9.98133 27.9276 9.888L28.2216 8.936C28.4363 9.02 28.6649 9.08533 28.9076 9.132C29.1596 9.16933 29.4676 9.188 29.8316 9.188ZM38.7418 5.45H46.9178V6.486H38.7418V5.45Z" fill="#333333"/>
</svg>
